# xmcd
# Copyright (C) 1995-1998 Ti Kan
#
# Track frame offsets:
#       150
#       12088
#       25398
#       45573
#       56768
#       68623
#       80988
#       95235
#       107475
#       120203
#       128978
#       142850
#
# Disc length: 2075 seconds
#
# Revision: 0
# Processed by: cddbd v1.5.2PL0 Copyright (c) Steve Scherf et al.
# Submitted via: CD-Import v1.0
#
DISCID=9c08190c
DTITLE=Frank Sinatra - Frank Sinatra`s Greatrest Hits!
DYEAR=1968
DGENRE=
TTITLE0=Strangers In The Night
TTITLE1=Summer Wind
TTITLE2=It Was A Very Good Year
TTITLE3=Somewhere In Your Heart
TTITLE4=Forget Domani
TTITLE5=Somethin' Stupid (With Nancy Sinatra)
TTITLE6=That's Life
TTITLE7=Tell Her (You Love Her Each Day)
TTITLE8=The World We Knew (Over And Over)
TTITLE9=When Somebody Loves You
TTITLE10=This Town
TTITLE11=Softly As I Leave You
EXTD=
EXTT0=
EXTT1=
EXTT2=
EXTT3=
EXTT4=
EXTT5=
EXTT6=
EXTT7=
EXTT8=
EXTT9=
EXTT10=
EXTT11=
PLAYORDER=
